Land_normalized_Motion_pl15
version=1
nRows=16
nColumns=43
inDegrees=yes
endheader
time		pelvis_tilt		pelvis_list		pelvis_rotation		pelvis_tx		pelvis_ty		pelvis_tz		hip_flexion_r		hip_adduction_r		hip_rotation_r		knee_angle_r		ankle_angle_r		subtalar_angle_r		mtp_angle_r		hip_flexion_l		hip_adduction_l		hip_rotation_l		knee_angle_l		ankle_angle_l		subtalar_angle_l		mtp_angle_l		lumbar_extension		lumbar_bending		lumbar_rotation		neck_flexion		neck_lateral_bending		neck_rotation		arm_flex_r		arm_add_r		arm_rot_r		elbow_flex_r		pro_sup_r		wrist_flex_r		wrist_dev_r		hand_finger_flex_r		arm_flex_l		arm_add_l		arm_rot_l		elbow_flex_l		pro_sup_l		wrist_flex_l		wrist_dev_l		hand_finger_flex_l		
1.978333		0.303791		10.145988		85.499247		-0.034011		0.723469		0.504193		56.821385		0.971012		1.054333		-90.278169		11.986219		-9.332246		5.659643		53.918918		-3.120985		-2.487459		-92.619205		14.191978		2.980975		16.327417		-42.909867		6.809822		11.426838		-3.442610		-4.336568		-11.325189		-24.050548		-10.650410		-30.689629		35.407635		98.822516		-3.727091		-14.360462		-15.592200		-43.207630		-14.225570		-13.848462		42.051029		118.158348		-29.708587		-12.008254		-7.265374		
1.981995		0.258615		10.791412		85.491671		-0.034177		0.714501		0.502287		57.990202		0.968826		1.193773		-92.886070		11.162296		-9.264773		5.692907		54.857593		-2.933697		-2.145987		-95.054224		13.819683		3.292760		16.428423		-44.562033		6.657993		11.607473		-1.861860		-4.553822		-11.395572		-21.361073		-11.078879		-30.366506		35.838352		99.058358		-3.922066		-14.424745		-15.607506		-40.721679		-14.620990		-13.338294		42.647071		118.427672		-29.403569		-12.128912		-7.095505		
1.985657		0.257484		11.437133		85.483695		-0.034316		0.705866		0.500245		59.068705		0.967267		1.309219		-95.297182		10.220057		-9.135896		5.840061		55.749553		-2.802536		-1.757346		-97.369112		13.315046		3.797763		16.606840		-46.176967		6.542449		11.866963		-0.406631		-4.730200		-11.483045		-18.735500		-11.513128		-30.020530		36.321885		99.506263		-4.179439		-14.607516		-15.596903		-38.187520		-15.039146		-12.763550		43.308005		118.711360		-29.178215		-12.129515		-6.949865		
1.989318		0.546659		12.146645		85.426572		-0.034362		0.697824		0.498045		59.881047		1.149550		1.203068		-97.407746		8.843889		-9.295803		8.452480		56.505462		-2.881175		-1.055801		-99.579445		12.700294		4.721691		18.720152		-47.851121		6.657136		12.476149		0.801577		-4.855047		-11.731360		-16.144706		-11.724709		-30.674081		36.897347		101.754629		-4.581378		-14.882455		-14.733620		-35.484511		-15.523149		-11.793754		43.998491		119.080256		-29.511245		-11.519266		-6.495032		
1.992980		0.622155		12.761830		85.399226		-0.034520		0.689743		0.495764		60.753005		1.148547		1.274880		-99.452394		8.034237		-8.990265		9.797324		57.287432		-2.809798		-0.574852		-101.641128		12.151437		5.474572		19.828419		-49.361649		6.621276		12.822673		2.003678		-5.181307		-11.843433		-13.557854		-12.075154		-30.755849		37.558626		102.946202		-4.770643		-15.005013		-14.419284		-32.884554		-15.951237		-11.065953		44.689540		119.340487		-29.431145		-11.526291		-6.161626		
1.996641		0.707941		13.366335		85.354223		-0.034796		0.682069		0.493448		61.496313		1.155522		1.409413		-101.323137		7.400074		-8.388708		11.125519		57.982109		-2.717395		-0.044331		-103.553102		11.656086		6.469695		20.998306		-50.829392		6.578055		13.274844		3.080576		-5.356073		-12.021458		-11.039430		-12.501928		-30.718103		38.260541		104.238768		-4.969879		-15.151065		-14.351152		-30.134803		-16.321641		-10.362425		45.290551		119.463275		-29.344747		-11.640411		-5.828694		
2.000303		0.872327		13.928816		85.303614		-0.035025		0.674580		0.491215		62.178229		1.202345		1.488563		-103.039529		6.518210		-7.924764		14.277829		58.685347		-2.635820		0.575235		-105.334148		10.798032		7.208186		24.041265		-52.227533		6.590461		13.828277		4.016722		-5.492673		-12.230069		-8.494339		-12.650109		-31.875916		39.169196		107.305764		-4.373965		-15.107625		-13.831212		-27.312038		-16.785296		-9.236715		45.937238		119.322480		-29.879316		-11.541337		-5.165729		
2.003965		0.947011		14.428443		85.230758		-0.035315		0.667275		0.488996		62.784695		1.221205		1.688042		-104.651658		6.520373		-7.094029		14.808727		59.365511		-2.545995		1.032895		-107.047193		10.410329		8.057874		24.639899		-53.529512		6.508999		14.195082		5.010608		-5.626607		-12.286284		-5.934755		-13.232038		-31.400429		39.917357		108.266576		-4.343392		-15.184601		-13.892361		-24.526779		-17.083478		-8.545003		46.532524		119.515081		-29.786647		-11.709071		-4.976989		
2.007626		1.037089		14.884631		85.193834		-0.035410		0.660152		0.486989		63.345708		1.249924		1.846329		-106.149366		6.503298		-6.400647		15.297972		60.049097		-2.422924		1.531042		-108.653234		9.952662		8.750093		25.207389		-54.773416		6.421874		14.549686		5.976676		-5.648264		-12.350909		-3.349605		-13.809941		-30.865946		40.698680		109.313282		-4.137236		-15.227811		-13.850725		-21.703938		-17.434798		-7.791936		47.175295		119.712683		-29.724017		-11.865860		-4.815889		
2.011288		1.353439		15.447274		85.246359		-0.035538		0.653526		0.485047		63.578150		1.243249		1.775743		-107.496192		6.890055		-5.198185		16.732806		60.562834		-2.361631		2.298711		-110.186097		9.517829		9.829903		27.202809		-56.112946		6.600723		15.013785		6.803722		-5.745569		-12.395722		-0.757788		-14.184791		-31.118745		41.772163		112.445891		-3.646861		-15.094058		-13.862666		-18.733687		-17.931235		-6.372084		47.671976		119.615471		-30.405312		-11.838527		-4.597429		
2.014949		1.453035		15.813759		85.331079		-0.035532		0.646472		0.483216		64.081523		1.177928		1.848480		-108.857020		7.064855		-4.674227		17.399658		61.284237		-2.179731		2.780430		-111.671153		9.022274		10.271735		28.164507		-57.179161		6.579651		15.249680		7.662902		-5.660686		-12.384090		1.791549		-14.756947		-30.529138		42.769049		114.070061		-2.995246		-15.095533		-13.837324		-15.882343		-18.433774		-5.350923		48.311667		119.745293		-30.418951		-12.075193		-4.360021		
2.018611		1.641108		16.130939		85.584628		-0.035572		0.639465		0.481338		64.496905		0.947742		1.753047		-110.140690		7.675487		-3.578705		17.984102		62.017915		-1.930747		3.406419		-113.117980		8.844156		10.925556		28.900651		-58.122989		6.763807		15.355361		8.377520		-5.573794		-12.307620		4.390263		-15.312149		-29.602221		43.783763		115.838569		-2.695920		-14.939738		-13.950489		-12.995374		-18.978480		-4.145845		48.830405		119.984742		-30.744552		-12.070313		-4.406982		
2.022273		1.703166		16.335919		85.863076		-0.035617		0.632110		0.479309		65.074600		0.646219		1.751427		-111.469094		8.196689		-2.738218		18.545913		62.841220		-1.623888		3.834450		-114.549241		8.738770		11.320916		29.581656		-58.853158		6.858084		15.369443		9.007090		-5.396545		-12.213967		6.897611		-15.865513		-28.627790		44.844414		117.509767		-2.199907		-14.880469		-13.974795		-10.139068		-19.590494		-2.908214		49.377275		120.242252		-30.914238		-12.112297		-4.430304		
2.025934		1.684667		16.437768		86.144290		-0.035652		0.624525		0.477102		65.771285		0.314878		1.820970		-112.807912		8.723447		-2.006725		18.876589		63.711150		-1.318195		4.086787		-115.956832		8.865734		11.530352		29.852878		-59.383289		6.890229		15.275065		9.611360		-5.118888		-12.128907		9.421209		-16.421150		-27.423724		45.804425		118.564994		-1.869629		-14.849554		-13.886445		-7.346339		-20.174278		-1.848251		49.916815		120.682575		-30.856446		-12.185226		-4.468844		
2.029596		1.533740		16.428340		86.538138		-0.035976		0.616430		0.474576		66.643173		-0.209750		2.033788		-114.260635		9.410406		-0.776615		19.492642		64.682238		-0.858291		4.208986		-117.355053		9.061678		11.757658		30.304285		-59.645289		6.938316		15.054459		9.899461		-4.814234		-11.928110		11.711409		-17.007046		-26.143962		46.975800		120.190866		-1.568005		-14.827546		-13.827537		-4.534045		-20.878610		-0.368500		50.389811		121.282050		-31.131040		-11.988791		-4.708368		
2.033258		1.368891		16.417335		86.792702		-0.036038		0.608558		0.472064		67.517997		-0.584470		2.271484		-115.668356		9.944835		-0.007597		19.982929		65.541952		-0.556307		4.164794		-118.675418		9.408472		11.743593		30.589149		-59.896361		6.831207		14.880222		10.358851		-4.427046		-11.826121		14.104551		-17.530145		-25.004719		47.949895		121.241003		-1.214136		-14.861235		-13.734799		-1.721345		-21.527013		0.918341		50.897139		121.979326		-31.122471		-11.899745		-4.842181		
